<svg xmlns="http://www.w3.org/2000/svg" width="18" height="18" viewBox="0 0 300 300" fill="currentColor"><path transform="translate(0 300) scale(1 -1)" d="M113 150Q133 150 150.0 160.0Q167 170 177.5 187.5Q188 205 188.0 225.0Q188 245 177.5 262.5Q167 280 150.0 290.0Q133 300 112.5 300.0Q92 300 75.0 290.0Q58 280 47.5 262.5Q37 245 37.5 225.0Q38 205 48.0 187.5Q58 170 75.0 160.0Q92 150 113 150ZM113 275Q133 275 148.0 260.5Q163 246 163.0 225.0Q163 204 148.0 189.5Q133 175 112.5 175.0Q92 175 77.5 189.5Q63 204 63.0 225.0Q63 246 77.5 260.5Q92 275 113 275ZM125 113Q125 107 121.5 103.5Q118 100 113 100Q89 100 69.0 88.0Q49 76 37.0 56.0Q25 36 25 13Q25 7 21.5 3.5Q18 0 12.5 0.0Q7 0 3.5 3.5Q0 7 0 13Q0 43 15.0 69.0Q30 95 56.0 110.0Q82 125 113 125Q118 125 121.5 121.5Q125 118 125 113ZM263 124V125Q263 135 255.5 142.5Q248 150 238 150H213Q202 150 194.5 142.5Q187 135 187 125V124Q172 122 161.0 110.0Q150 98 150 81V44Q150 26 163.0 13.0Q176 0 194 0H256Q274 0 287.0 13.0Q300 26 300 44V81Q300 98 289.0 110.0Q278 122 262 124ZM194 100H256Q264 100 269.5 94.5Q275 89 275 81V75H175V81Q175 89 180.5 94.5Q186 100 194 100ZM256 25H194Q186 25 180.5 30.5Q175 36 175 44V50H213Q213 45 216.5 41.0Q220 37 225.0 37.5Q230 38 233.5 41.5Q237 45 237 50H275V44Q275 36 269.5 30.5Q264 25 256 25Z"/></svg>
