<svg xmlns="http://www.w3.org/2000/svg" width="18" height="18" viewBox="0 0 300 300" fill="currentColor"><path transform="translate(0 300) scale(1 -1)" d="M249 261 245 270Q242 278 235.5 283.0Q229 288 221 288H199Q194 288 191.5 284.0Q189 280 191 275L198 263H172L168 270Q165 278 158.5 283.0Q152 288 144 288H122Q117 288 114.5 284.0Q112 280 115 275L121 263H95L86 281Q83 288 75 288H50Q29 288 14.5 273.0Q0 258 0 237V75Q0 58 8.5 43.5Q17 29 31.5 21.0Q46 13 63 13H238Q254 13 268.5 21.0Q283 29 291.5 43.5Q300 58 300 75V200Q300 223 285.5 240.0Q271 257 249 261ZM25 238Q25 248 32.5 255.5Q40 263 50 263H67L76 244Q80 238 88 238H238Q250 238 259.5 231.0Q269 224 273 212H25ZM275 75Q275 59 264.0 48.0Q253 37 237 37H63Q47 38 36.0 48.5Q25 59 25 75V188H275Z"/></svg>
